<?xml version="1.0" standalone="no"?>
<!DOCTYPE svg PUBLIC "-//W3C//DTD SVG 20010904//EN"
 "http://www.w3.org/TR/2001/REC-SVG-20010904/DTD/svg10.dtd">
<svg version="1.0" xmlns="http://www.w3.org/2000/svg"
 width="700.000000pt" height="700.000000pt" viewBox="0 0 700.000000 700.000000"
 preserveAspectRatio="xMidYMid meet">
<metadata>
Created by potrace 1.11, written by Peter Selinger 2001-2013
</metadata>
<g transform="translate(0.000000,700.000000) scale(0.100000,-0.100000)"
fill="#000000" stroke="none">
<path d="M2079 5703 c-1 -5 -1 -12 0 -17 1 -5 -5 -6 -14 -3 -8 4 -15 1 -15 -6
0 -8 -3 -8 -8 -2 -8 12 -15 12 -54 1 -14 -4 -44 -9 -66 -10 -22 -1 -48 -9 -58
-17 -11 -9 -15 -9 -10 -1 4 6 2 12 -3 12 -6 0 -11 -4 -11 -10 0 -5 -7 -7 -15
-4 -9 4 -15 0 -15 -7 0 -11 -3 -11 -10 1 -5 8 -10 10 -10 4 0 -7 -7 -15 -16
-18 -8 -3 -12 -2 -9 4 3 6 -1 7 -9 4 -9 -3 -14 -10 -11 -14 3 -5 -9 -5 -26 0
-23 7 -30 6 -26 -3 3 -8 -4 -14 -17 -15 -49 -3 -81 -11 -84 -21 -2 -6 -13 -11
-23 -11 -11 0 -18 -4 -15 -8 3 -5 -8 -8 -24 -7 -19 1 -30 -3 -30 -12 0 -8 -12
-13 -33 -13 -20 0 -39 -8 -50 -20 -10 -12 -22 -18 -27 -15 -6 3 -10 1 -10 -5
0 -6 -4 -8 -10 -5 -5 3 -10 1 -10 -5 0 -6 -4 -8 -10 -5 -5 3 -10 1 -10 -5 0
-6 -4 -9 -9 -5 -5 3 -15 -1 -23 -8 -7 -8 -18 -12 -24 -10 -7 2 -19 -3 -27 -12
-9 -8 -20 -15 -26 -15 -6 0 -11 -5 -11 -11 0 -5 -4 -7 -10 -4 -5 3 -10 0 -10
-8 0 -8 -8 -14 -17 -13 -10 0 -17 -4 -16 -11 2 -7 -6 -10 -17 -8 -12 2 -18 0
-15 -6 4 -5 -1 -9 -9 -9 -9 0 -16 -5 -16 -11 0 -5 -4 -8 -9 -5 -5 3 -12 -1
-15 -10 -3 -8 -10 -13 -15 -10 -5 3 -12 -1 -15 -10 -4 -9 -13 -14 -21 -10 -8
3 -14 2 -12 -2 3 -9 -40 -52 -53 -52 -5 0 -13 -8 -19 -17 -5 -10 -12 -15 -16
-11 -10 9 -47 -31 -40 -43 4 -5 3 -8 -2 -7 -12 4 -73 -35 -73 -47 0 -15 -37
-45 -46 -37 -4 4 -4 -1 -1 -11 4 -11 3 -16 -3 -12 -6 3 -13 -1 -16 -9 -3 -9
-10 -13 -15 -10 -5 3 -9 -2 -9 -11 0 -9 -3 -14 -7 -12 -5 3 -14 -1 -21 -9 -10
-11 -10 -14 0 -15 7 0 3 -5 -9 -11 -13 -6 -23 -18 -23 -26 0 -9 -3 -12 -7 -9
-7 8 -39 -34 -35 -46 1 -5 -2 -6 -7 -3 -5 3 -12 -1 -15 -10 -3 -8 -9 -13 -14
-10 -4 2 -9 -4 -9 -15 -2 -25 -22 -51 -34 -43 -5 3 -9 -2 -9 -10 0 -9 -8 -24
-18 -34 -10 -10 -16 -24 -14 -32 3 -7 1 -10 -4 -7 -5 2 -15 -1 -22 -9 -7 -8
-10 -14 -7 -14 3 0 -4 -10 -15 -22 -12 -13 -24 -35 -27 -50 -3 -15 -9 -25 -14
-23 -4 3 -9 -5 -11 -17 -2 -14 -9 -22 -18 -20 -8 2 -12 0 -8 -4 4 -4 2 -14 -5
-22 -10 -13 -9 -15 3 -8 8 4 7 1 -4 -8 -10 -8 -15 -20 -10 -27 5 -8 3 -10 -6
-4 -10 6 -12 2 -8 -18 3 -14 2 -26 -1 -25 -19 2 -31 -3 -26 -12 3 -5 -2 -21
-11 -35 -9 -14 -13 -25 -9 -25 3 0 -1 -7 -9 -16 -9 -8 -14 -19 -11 -24 3 -5 1
-11 -5 -15 -6 -4 -8 -11 -5 -16 4 -5 2 -9 -2 -9 -5 0 -10 -12 -11 -26 -1 -15
-10 -33 -20 -40 -10 -8 -12 -13 -5 -14 7 0 10 -7 7 -15 -3 -8 -11 -13 -17 -12
-7 1 -11 -11 -10 -31 1 -18 -2 -30 -7 -27 -4 3 -6 -4 -3 -15 3 -12 0 -20 -7
-20 -9 0 -9 -4 1 -17 12 -14 12 -16 0 -8 -11 6 -13 3 -9 -13 4 -14 2 -20 -5
-15 -6 4 -8 0 -4 -10 3 -9 2 -19 -4 -22 -5 -4 -6 -11 -3 -17 4 -6 0 -14 -7
-19 -11 -7 -11 -9 -1 -9 11 0 11 -2 0 -14 -8 -7 -14 -28 -13 -47 0 -19 -4 -37
-10 -41 -6 -5 -5 -8 3 -8 7 0 10 -5 7 -10 -4 -6 -10 -8 -14 -6 -4 3 -8 -1 -8
-9 0 -8 7 -15 16 -15 14 -1 14 -2 0 -10 -11 -7 -16 -22 -15 -50 1 -22 -1 -40
-5 -40 -4 0 -6 -18 -6 -40 1 -22 5 -40 10 -40 4 0 1 -7 -8 -16 -11 -11 -13
-20 -5 -28 5 -7 8 -15 6 -17 -9 -8 -13 -88 -5 -100 4 -7 4 -22 -1 -34 -4 -11
-4 -28 1 -37 6 -11 5 -19 -1 -23 -6 -4 -8 -11 -4 -16 3 -6 7 -34 8 -62 1 -29
5 -58 9 -64 4 -7 3 -15 -3 -18 -8 -5 -8 -11 -1 -19 6 -7 8 -16 4 -19 -3 -4 0
-7 8 -7 11 0 11 -2 -1 -10 -8 -5 -10 -10 -4 -10 7 0 14 -7 17 -14 4 -10 1 -13
-8 -9 -13 4 -13 1 -1 -21 7 -15 12 -40 11 -57 -2 -22 1 -29 11 -25 8 3 14 1
14 -4 0 -6 -5 -10 -11 -10 -8 0 -8 -4 1 -15 6 -8 9 -19 6 -24 -4 -5 -1 -13 5
-17 8 -4 7 -9 -2 -15 -12 -7 -12 -9 0 -9 8 0 11 -6 7 -16 -3 -8 -2 -12 3 -9 5
3 12 1 16 -5 3 -5 1 -10 -6 -10 -8 0 -9 -4 0 -13 7 -10 7 -17 0 -24 -8 -8 -7
-13 2 -18 8 -6 10 -4 4 5 -6 9 -4 11 4 6 7 -5 10 -14 7 -22 -3 -8 -1 -14 5
-14 6 0 7 -5 3 -12 -4 -6 1 -17 11 -25 14 -9 15 -13 4 -13 -9 0 -10 -3 -3 -8
7 -4 14 -18 15 -32 2 -14 7 -28 11 -31 5 -3 9 -17 10 -32 1 -14 4 -24 7 -22 7
8 31 -46 25 -56 -3 -5 2 -12 10 -15 9 -3 16 -15 16 -26 0 -12 10 -29 22 -39
14 -13 16 -19 7 -19 -11 0 -11 -2 1 -10 8 -5 11 -10 6 -10 -6 0 -1 -7 10 -16
10 -8 14 -13 8 -10 -6 3 -11 -1 -11 -9 0 -8 3 -13 5 -10 9 9 32 -17 32 -36 0
-10 5 -21 12 -25 7 -5 8 -3 3 6 -5 8 -4 11 3 6 6 -4 9 -13 5 -21 -3 -8 -1 -15
5 -15 5 0 15 -14 22 -30 7 -17 16 -30 21 -30 5 0 9 -9 9 -21 0 -11 5 -17 10
-14 6 3 10 -1 10 -9 0 -9 7 -16 16 -16 8 0 13 -4 9 -9 -3 -5 2 -17 11 -25 8
-9 12 -16 8 -16 -4 0 7 -12 24 -26 18 -15 32 -36 32 -46 0 -11 5 -16 10 -13 6
3 10 -1 10 -9 0 -9 7 -16 17 -16 9 0 14 -3 10 -6 -8 -9 36 -52 47 -46 5 3 6 0
2 -6 -8 -13 38 -69 64 -77 10 -3 22 -15 25 -26 4 -10 10 -17 15 -14 5 3 17 -6
26 -20 9 -13 20 -23 24 -20 4 3 10 -4 13 -15 3 -11 13 -23 24 -27 10 -3 22
-13 26 -20 5 -7 12 -11 18 -8 5 4 9 -1 9 -10 0 -9 4 -13 10 -10 5 3 10 1 10
-4 0 -6 10 -11 23 -11 14 0 18 -3 10 -8 -9 -6 -6 -11 8 -21 16 -9 19 -9 14 0
-6 8 -4 10 4 5 7 -5 10 -15 7 -23 -4 -11 -1 -13 14 -8 15 5 20 2 20 -12 0 -15
2 -16 10 -3 8 13 10 12 10 -3 0 -10 4 -15 10 -12 5 3 10 1 10 -5 0 -6 4 -9 9
-6 5 3 12 -1 15 -10 3 -8 10 -12 16 -9 6 3 13 -1 16 -9 3 -9 10 -13 15 -10 5
3 9 0 9 -6 0 -6 4 -8 10 -5 5 3 10 3 10 -2 0 -4 14 -14 30 -21 17 -8 28 -18
25 -23 -4 -5 1 -6 9 -3 9 4 16 1 16 -6 0 -10 3 -10 14 -1 11 9 16 9 22 0 4 -8
3 -9 -4 -5 -7 4 -12 2 -12 -5 0 -6 8 -9 20 -6 10 3 18 0 17 -5 -1 -6 7 -12 17
-14 10 -1 23 -9 27 -16 5 -7 9 -9 9 -5 0 5 11 0 25 -11 14 -11 33 -19 43 -18
9 2 20 -1 23 -6 3 -5 17 -10 30 -11 13 0 27 -5 30 -9 3 -5 16 -10 28 -13 13
-2 30 -10 39 -17 13 -11 14 -11 7 2 -5 10 -1 9 13 -3 11 -11 25 -16 30 -13 5
3 15 -1 22 -9 10 -12 16 -13 26 -4 10 8 14 8 14 1 0 -7 7 -9 17 -5 10 4 14 2
10 -4 -4 -6 5 -9 23 -7 17 2 30 -1 30 -7 0 -6 7 -9 15 -6 8 4 17 2 20 -4 4 -5
11 -7 16 -4 5 4 9 1 9 -6 0 -8 4 -8 15 1 11 9 15 10 15 1 0 -8 8 -10 21 -6 16
6 20 4 13 -6 -7 -12 -5 -12 9 0 14 11 18 11 23 -3 3 -9 10 -13 15 -10 5 3 7 9
5 13 -3 4 1 8 9 8 8 0 12 -4 9 -9 -5 -7 10 -12 29 -9 4 1 16 -3 27 -9 13 -7
21 -7 25 0 5 8 11 8 20 0 9 -8 15 -8 20 0 3 5 12 10 18 10 8 0 7 -3 -2 -9 -8
-5 59 -9 163 -8 97 0 179 4 182 9 3 4 11 8 17 8 7 0 6 -4 -3 -10 -13 -8 -13
-10 2 -10 9 0 20 5 23 10 4 7 13 7 26 0 15 -9 19 -7 19 6 0 14 2 15 17 3 9 -8
17 -14 17 -13 19 16 45 21 56 11 9 -8 11 -8 7 -1 -4 7 0 15 9 18 10 4 13 2 8
-7 -6 -9 -5 -9 8 0 8 7 18 10 21 6 4 -3 13 -1 21 6 11 9 15 9 18 0 3 -9 12 -7
31 6 15 9 27 13 27 9 0 -5 5 -2 10 6 8 13 10 13 10 0 0 -10 3 -11 11 -3 6 6
18 9 27 6 10 -4 13 -2 8 5 -4 8 -2 10 7 6 8 -3 18 0 22 5 3 6 11 9 16 5 5 -3
21 2 36 11 14 9 22 12 19 6 -4 -6 -3 -11 3 -11 5 0 13 5 17 11 3 6 15 9 25 6
10 -3 17 0 16 5 -2 9 18 17 51 20 6 1 12 5 12 10 0 4 12 8 26 8 17 0 23 4 18
12 -5 7 -2 9 8 5 9 -3 25 1 36 8 10 8 22 11 26 8 3 -3 6 -1 6 5 0 7 6 11 13 9
6 -1 11 4 9 12 -2 11 0 12 10 4 15 -12 42 9 30 23 -4 4 -1 4 6 0 7 -4 20 -2
29 6 14 11 16 11 9 -2 -4 -9 -2 -8 7 2 8 10 17 15 20 11 4 -3 7 -1 7 6 0 7 5
9 10 6 6 -3 13 1 16 10 4 9 13 14 20 11 8 -3 14 -1 14 5 0 6 7 8 16 5 8 -3 12
-2 9 4 -3 6 -1 10 5 10 6 0 8 4 5 10 -3 5 0 7 7 5 8 -3 24 4 36 15 12 11 22
17 22 13 0 -4 7 1 16 12 8 11 18 20 22 20 4 0 6 4 4 8 -1 5 1 6 6 3 5 -3 18 2
28 10 10 9 13 12 5 8 -9 -4 -12 -3 -7 4 4 6 14 8 23 5 12 -5 14 -3 8 7 -6 10
-4 12 8 7 11 -4 17 -1 17 8 0 7 5 17 12 21 7 5 9 2 4 -7 -4 -8 2 -3 13 10 12
13 21 20 21 17 0 -4 14 7 30 24 17 17 30 28 30 25 0 -4 7 1 16 9 8 9 12 21 8
28 -5 9 -2 8 9 -1 15 -12 17 -12 11 4 -5 13 -4 16 4 11 7 -4 15 -1 18 8 3 9
13 16 21 16 8 0 12 3 10 8 -6 10 30 42 39 34 4 -4 4 2 0 13 -4 11 -4 17 -1 13
8 -8 53 34 48 45 -2 4 3 7 12 7 9 0 14 4 10 9 -3 5 4 12 15 16 11 4 18 11 15
16 -4 5 -1 9 5 9 7 0 9 7 6 16 -5 14 -4 15 8 5 12 -10 15 -8 18 11 2 13 9 22
16 20 8 -1 11 2 7 8 -3 5 -1 10 5 10 6 0 9 4 6 9 -3 5 1 12 10 15 8 3 13 10
10 15 -3 5 1 11 9 15 8 3 15 13 15 22 0 10 5 14 16 10 10 -4 13 -2 8 6 -4 6 1
17 10 24 10 7 18 16 19 21 1 4 5 7 9 6 4 -2 5 3 2 11 -3 8 5 24 18 36 13 13
16 20 8 16 -8 -4 -6 0 4 8 11 9 16 16 12 16 -5 0 -3 6 3 13 6 8 7 17 3 21 -4
4 0 6 8 4 10 -2 14 3 12 16 -2 10 1 15 6 12 15 -9 22 20 9 33 -9 10 -9 12 3 9
8 -2 18 -7 22 -13 4 -5 6 4 4 22 -3 22 0 33 11 37 8 4 13 13 9 21 -3 9 0 15 8
15 9 0 13 10 12 29 -2 22 2 27 13 23 10 -4 13 -1 8 11 -4 11 -1 17 7 17 9 0
12 7 9 19 -3 10 0 22 6 25 5 4 8 13 5 20 -3 8 -1 17 5 21 6 3 11 15 11 26 0
10 5 19 11 19 5 0 7 4 4 10 -3 5 -2 10 4 10 6 0 8 6 5 14 -3 8 -1 17 5 21 15
9 14 28 -1 20 -7 -4 -6 -1 3 7 8 7 15 27 14 45 0 22 3 29 10 23 8 -6 10 0 9
21 -3 36 6 70 16 64 4 -2 6 9 4 26 -3 20 0 28 7 23 7 -4 7 2 -1 16 -11 20 -10
22 4 17 14 -6 15 -3 6 13 -8 15 -8 20 2 20 9 0 9 3 -2 10 -12 7 -12 10 -1 10
8 0 11 6 7 16 -3 8 -1 25 5 36 9 16 8 19 -3 12 -11 -6 -11 -5 0 8 10 13 10 17
0 21 -9 4 -9 6 2 6 13 1 15 23 15 139 0 75 4 143 9 150 5 8 4 12 -5 12 -10 0
-10 3 -1 12 6 6 8 18 4 27 -5 9 -8 53 -8 98 1 47 -3 79 -8 75 -5 -3 -7 2 -3
11 3 10 2 17 -3 17 -6 0 -10 5 -10 11 0 5 6 7 13 3 9 -6 9 -5 0 7 -6 8 -10 27
-9 41 2 15 -1 25 -5 22 -5 -3 -9 -2 -10 3 0 4 -2 16 -4 25 -2 10 1 20 5 23 5
3 1 20 -8 38 -20 40 -24 59 -9 51 8 -5 7 -2 0 7 -7 7 -13 21 -13 32 0 12 -4
16 -12 11 -9 -5 -9 -2 1 9 8 10 9 17 3 17 -6 0 -9 9 -7 20 2 11 -2 26 -10 34
-11 10 -11 16 -2 26 9 10 9 11 -1 5 -10 -5 -13 -2 -10 11 2 11 -6 27 -17 37
-11 10 -13 15 -5 11 12 -5 12 -4 3 6 -6 7 -9 18 -7 25 3 7 0 16 -7 21 -8 5
-10 3 -4 -6 5 -8 4 -11 -2 -7 -6 4 -9 18 -8 32 2 14 -1 25 -6 25 -6 0 -7 5 -4
10 3 6 2 10 -4 10 -5 0 -8 9 -6 21 3 15 0 19 -10 15 -9 -3 -12 1 -10 14 2 10
-3 21 -11 24 -11 4 -13 13 -9 27 5 15 4 19 -4 15 -6 -4 -11 0 -11 9 0 9 -7 23
-16 32 -8 9 -13 21 -10 28 2 6 -4 18 -14 25 -11 8 -17 17 -14 22 3 4 0 8 -6 8
-6 0 -8 5 -5 10 3 6 1 10 -5 10 -7 0 -10 7 -6 15 3 8 2 14 -2 14 -20 -3 -25 2
-12 12 12 9 11 10 -6 6 -18 -4 -20 0 -16 21 3 17 1 23 -6 18 -7 -4 -14 3 -18
19 -3 14 -15 30 -25 35 -11 6 -16 17 -12 26 3 9 0 14 -8 12 -9 -2 -14 5 -13
19 0 12 -2 22 -5 21 -20 -2 -31 3 -26 12 3 6 1 10 -4 10 -6 0 -11 7 -11 15 0
9 -7 18 -15 21 -8 4 -12 10 -9 15 3 5 2 8 -3 7 -10 -3 -83 71 -83 84 0 5 -5 6
-12 2 -8 -5 -9 -2 -5 9 6 15 -3 22 -19 15 -10 -5 -25 32 -18 44 4 6 3 8 -4 4
-6 -3 -30 14 -54 39 -24 25 -47 45 -51 45 -4 0 -21 14 -37 30 -16 17 -34 30
-40 30 -6 0 -8 5 -5 10 3 6 -4 10 -15 10 -15 0 -20 5 -17 14 4 10 -1 12 -16 9
-18 -4 -20 -3 -7 7 13 10 11 11 -7 7 -15 -3 -20 -1 -16 9 3 9 -2 14 -17 14
-11 0 -18 5 -15 10 3 6 -1 10 -9 10 -9 0 -16 5 -16 10 0 6 -7 10 -15 10 -8 0
-15 4 -15 8 0 5 -16 14 -35 22 -19 8 -35 17 -35 22 0 4 -7 8 -15 8 -8 0 -15 4
-15 9 0 8 -32 24 -52 26 -3 0 -10 4 -15 9 -5 5 -2 6 7 2 8 -4 6 0 -4 8 -23 19
-40 21 -30 5 8 -13 -57 31 -68 46 -5 6 -8 4 -9 -5 0 -10 -3 -8 -9 5 -5 11 -9
14 -9 7 -1 -10 -5 -10 -17 2 -8 9 -20 14 -25 11 -5 -4 -9 1 -9 9 0 10 -6 13
-15 10 -8 -4 -15 -1 -15 6 0 10 -3 10 -14 1 -11 -9 -15 -9 -18 1 -3 7 -13 13
-24 13 -10 0 -18 5 -17 11 1 7 -6 10 -17 7 -13 -3 -20 0 -20 8 0 11 -2 11 -10
-1 -8 -12 -10 -12 -10 5 0 17 -2 17 -10 5 -7 -11 -10 -11 -10 -2 0 7 -4 10
-10 7 -5 -3 -10 0 -10 7 0 9 -3 9 -10 -2 -5 -8 -10 -10 -10 -5 0 6 -10 16 -21
24 -20 12 -21 11 -15 -4 5 -14 4 -16 -7 -7 -8 7 -17 9 -20 5 -4 -3 -9 2 -13
11 -3 9 -10 16 -16 16 -5 0 -6 -6 -1 -12 4 -7 -6 -5 -21 6 -17 11 -25 13 -20
5 6 -11 5 -12 -7 -2 -9 7 -30 13 -47 15 -18 1 -32 5 -32 9 0 4 -14 6 -31 5
-16 -1 -32 1 -35 5 -3 5 -12 5 -21 2 -9 -4 -14 -2 -11 3 4 5 -10 9 -30 8 -21
0 -43 4 -51 10 -11 8 -13 8 -7 -1 4 -7 2 -13 -3 -13 -6 0 -11 5 -11 10 0 6 -5
10 -11 10 -5 0 -7 -6 -3 -12 6 -10 4 -10 -7 -2 -16 12 -402 17 -394 5 2 -4 -9
-5 -25 -3 -17 2 -27 8 -24 13 3 5 3 9 0 9 -3 0 -7 -3 -7 -7z m269 -987 c7 -4
12 -2 12 4 0 6 5 8 10 5 6 -4 8 -11 5 -16 -4 -5 -1 -9 4 -9 6 0 11 8 11 18 0
14 2 15 10 2 9 -13 11 -13 20 0 8 13 10 13 10 -1 0 -14 6 -16 35 -9 19 4 33 4
30 0 -3 -4 2 -10 10 -14 8 -3 17 -1 21 5 4 6 11 6 20 -2 7 -6 20 -9 28 -6 7 3
19 0 25 -6 6 -6 11 -7 11 -1 0 5 5 2 10 -6 7 -11 10 -11 10 -2 0 7 5 10 10 7
6 -4 8 -10 6 -14 -3 -4 8 -7 24 -6 17 1 30 -2 30 -7 0 -4 7 -8 15 -8 8 0 15
-6 15 -12 0 -10 2 -10 9 0 7 11 11 11 23 -2 9 -8 18 -13 21 -10 3 3 16 -2 29
-10 14 -9 28 -13 31 -9 4 3 7 -1 7 -10 0 -10 7 -15 18 -12 11 2 25 -5 33 -16
7 -10 18 -19 25 -19 21 0 74 -32 68 -41 -3 -5 -2 -8 3 -7 8 2 54 -25 85 -51 9
-8 14 -19 11 -24 -3 -6 -1 -7 5 -3 6 4 19 -2 29 -14 10 -11 23 -20 30 -20 6 0
15 -9 18 -20 3 -11 11 -20 16 -20 6 0 7 -4 4 -10 -3 -5 1 -10 10 -10 9 0 13
-4 10 -10 -3 -5 1 -10 10 -10 8 0 19 -8 22 -17 4 -10 15 -24 25 -31 10 -7 18
-19 18 -26 0 -8 7 -19 15 -26 8 -7 12 -16 9 -21 -3 -5 2 -6 11 -3 9 4 15 3 14
-2 -4 -21 2 -35 11 -29 6 4 10 3 9 -2 -3 -12 12 -46 29 -65 8 -10 11 -18 7
-18 -5 0 0 -7 11 -16 10 -8 12 -12 4 -8 -11 6 -10 2 3 -13 9 -11 17 -27 17
-36 0 -9 6 -17 13 -17 9 0 9 -2 -1 -9 -11 -7 -10 -9 3 -14 9 -4 15 -12 13 -19
-1 -7 3 -23 10 -35 7 -13 9 -23 5 -23 -4 0 -1 -5 7 -10 13 -9 13 -10 0 -10
-12 0 -12 -2 -2 -8 12 -8 24 -47 26 -85 0 -10 6 -15 13 -13 7 3 10 -1 6 -9 -3
-8 -10 -12 -17 -8 -7 4 -7 1 1 -9 7 -8 10 -18 6 -21 -3 -4 -1 -7 4 -7 13 0 12
-18 -1 -39 -6 -10 -5 -12 3 -7 8 5 10 0 7 -19 -4 -23 -3 -25 10 -14 12 10 13
9 8 -5 -3 -9 -11 -16 -18 -17 -6 0 -2 -4 9 -9 11 -5 15 -9 9 -9 -6 -1 -10 -20
-8 -48 1 -27 -3 -54 -9 -61 -5 -7 -7 -15 -3 -19 3 -3 6 -1 6 5 0 7 5 12 10 12
7 0 7 -6 2 -17 -5 -10 -7 -24 -4 -32 3 -9 0 -11 -8 -6 -9 6 -10 3 -2 -12 6
-11 7 -25 2 -33 -5 -9 -5 -19 1 -26 7 -8 6 -15 -2 -20 -8 -5 -9 -3 -4 6 5 9 4
11 -3 6 -9 -5 -9 -13 -2 -27 7 -12 7 -19 1 -19 -5 0 -10 -8 -10 -17 -1 -18 -8
-64 -11 -73 -1 -3 -2 -9 -1 -14 1 -4 -6 -15 -16 -23 -10 -8 -13 -12 -6 -9 16
9 10 -41 -8 -62 -8 -9 -14 -24 -14 -32 0 -8 -6 -21 -15 -28 -13 -12 -13 -12 0
-6 13 7 13 5 2 -9 -8 -9 -10 -22 -6 -28 4 -7 3 -9 -3 -6 -6 4 -19 -3 -29 -16
-19 -21 -19 -21 0 -7 18 14 19 14 6 -10 -8 -14 -13 -29 -12 -33 1 -5 -2 -6 -8
-2 -9 6 -14 -8 -11 -28 1 -4 -6 -10 -14 -13 -8 -4 -15 -12 -15 -20 0 -8 -6
-14 -12 -14 -10 0 -10 -2 0 -9 10 -6 8 -10 -9 -14 -13 -4 -20 -9 -17 -12 3 -4
-5 -18 -18 -32 -13 -14 -21 -30 -17 -36 4 -6 0 -8 -11 -4 -10 4 -15 3 -11 -3
3 -6 1 -10 -4 -10 -6 0 -10 -6 -9 -12 2 -7 -3 -12 -9 -10 -7 1 -13 -5 -13 -13
0 -8 -4 -15 -10 -15 -5 0 -10 -7 -10 -15 0 -9 -6 -12 -15 -9 -10 4 -15 0 -15
-16 0 -11 -4 -18 -10 -15 -5 3 -10 1 -10 -5 0 -6 -4 -8 -10 -5 -5 3 -10 -1
-10 -10 0 -9 -4 -13 -10 -10 -5 3 -10 -1 -10 -10 0 -11 -5 -15 -16 -11 -8 3
-12 2 -9 -4 3 -6 -2 -13 -12 -17 -10 -4 -29 -18 -42 -32 -13 -14 -20 -19 -15
-11 7 13 5 13 -9 1 -9 -7 -14 -17 -11 -22 3 -5 -2 -6 -10 -3 -9 3 -16 1 -16
-5 0 -6 -6 -10 -12 -9 -7 2 -11 -4 -10 -12 2 -8 0 -12 -4 -8 -4 4 -14 2 -22
-5 -13 -10 -15 -9 -8 3 4 8 -3 3 -16 -13 -19 -22 -26 -25 -37 -15 -11 11 -12
10 -6 0 5 -9 1 -12 -11 -10 -12 2 -18 -2 -16 -11 2 -8 -3 -11 -12 -8 -8 3 -17
1 -19 -6 -3 -9 -9 -9 -24 0 -17 10 -20 9 -19 -5 1 -12 -6 -17 -22 -16 -14 1
-21 -3 -19 -10 3 -8 -7 -11 -29 -11 -19 1 -34 -2 -34 -7 0 -5 -4 -6 -10 -3 -5
3 -10 2 -10 -3 0 -5 -18 -8 -39 -8 -22 1 -37 -2 -35 -5 6 -10 -17 -16 -53 -13
-18 1 -33 -1 -33 -5 0 -4 -19 -6 -42 -4 -25 1 -46 -3 -50 -10 -6 -9 -8 -8 -8
2 0 11 -3 11 -17 0 -14 -12 -16 -12 -8 0 6 11 4 13 -11 7 -32 -13 -55 -15 -49
-5 4 5 -1 9 -9 9 -9 0 -16 -6 -16 -12 0 -10 -2 -10 -9 0 -4 8 -11 13 -15 13
-3 -1 -29 -1 -57 -1 -34 0 -48 4 -43 11 5 8 1 8 -14 0 -21 -11 -56 -5 -47 9 2
4 -9 6 -25 4 -16 -2 -32 1 -35 6 -3 6 -20 10 -36 10 -17 0 -28 4 -25 9 3 4 -6
7 -19 5 -14 -1 -25 2 -25 7 0 6 -8 9 -17 7 -11 -2 -17 2 -15 10 1 8 -2 11 -9
6 -6 -3 -15 0 -20 7 -7 12 -9 12 -9 0 0 -11 -4 -10 -19 3 -11 10 -25 15 -32
10 -7 -4 -10 -3 -6 3 4 6 0 14 -9 17 -10 4 -13 2 -9 -7 4 -6 1 -5 -7 4 -13 16
-48 33 -60 31 -4 -1 -5 5 -2 13 5 11 2 13 -10 9 -9 -4 -25 5 -41 22 -20 21
-24 23 -19 8 3 -11 -2 -8 -14 9 -11 16 -23 29 -28 30 -5 1 -8 6 -6 11 2 5 -4
6 -13 3 -9 -4 -15 -1 -15 8 0 8 -7 15 -15 15 -8 0 -15 5 -15 11 0 5 -5 7 -12
3 -8 -5 -9 -2 -5 9 3 9 3 16 -1 16 -21 -3 -32 3 -32 17 0 8 -4 12 -10 9 -5 -3
-10 0 -10 8 0 8 -7 18 -16 21 -9 3 -12 11 -8 18 5 8 0 7 -11 -2 -11 -9 -16
-10 -11 -2 4 7 2 12 -6 12 -9 0 -9 3 2 10 13 8 13 10 -1 10 -16 0 -34 26 -30
44 1 5 -6 6 -15 2 -12 -5 -15 -2 -10 10 4 11 -1 18 -15 21 -14 4 -17 8 -9 13
9 6 6 10 -8 14 -12 4 -19 13 -16 20 3 7 -2 19 -11 26 -8 7 -15 19 -15 27 0 7
-7 16 -16 20 -13 5 -13 7 -2 14 10 7 9 9 -5 9 -10 0 -16 4 -12 9 3 5 -2 16
-10 24 -8 9 -15 25 -15 37 0 13 -4 19 -12 14 -8 -5 -9 0 -6 14 4 12 2 22 -4
22 -5 0 -6 5 -3 10 3 6 2 10 -3 10 -6 0 -13 7 -16 16 -3 8 -2 12 4 9 6 -3 10
-1 10 4 0 6 -6 11 -13 11 -8 0 -14 15 -15 37 -2 21 -8 40 -13 44 -6 3 -10 9
-10 13 4 28 -1 56 -8 52 -10 -7 -9 20 2 30 4 4 2 13 -4 21 -6 7 -8 13 -3 13 5
0 2 5 -6 10 -12 8 -12 10 -1 10 10 0 10 6 -4 26 -9 15 -13 24 -7 20 5 -3 10 6
10 19 0 14 -6 25 -12 25 -6 0 -4 5 4 10 13 8 13 10 1 10 -12 0 -12 3 -3 12 14
14 16 32 4 24 -5 -3 -9 1 -9 9 0 8 4 15 9 15 5 0 6 6 1 13 -11 18 -13 38 -2
31 5 -3 9 2 9 11 0 10 -5 13 -12 9 -10 -6 -10 -5 -1 8 7 8 10 18 6 22 -4 4 -1
11 7 16 8 6 10 10 5 10 -7 0 -9 15 -7 35 3 23 8 32 16 28 6 -4 5 1 -3 10 -10
13 -10 17 -1 17 7 0 10 8 7 20 -3 11 0 20 6 20 7 0 5 5 -3 10 -11 7 -11 10 -2
10 7 0 10 5 7 10 -3 6 0 10 7 10 10 0 9 3 -2 10 -13 8 -12 10 1 15 11 4 15 16
13 36 -2 18 1 32 10 35 7 3 12 16 11 29 -2 16 1 22 10 19 10 -4 12 1 8 15 -3
13 -1 21 8 21 7 0 9 3 6 7 -4 3 1 15 10 26 13 15 14 18 3 12 -9 -5 -8 0 4 13
11 12 15 22 11 22 -5 0 0 7 11 16 10 8 13 13 7 9 -9 -4 -11 -1 -7 9 3 9 10 14
14 11 4 -3 11 6 14 20 4 14 11 25 17 25 6 0 7 5 4 10 -3 6 -1 10 5 10 6 0 8 5
5 10 -3 6 1 10 10 10 9 0 13 5 10 10 -3 6 -1 10 5 10 6 0 8 5 5 10 -3 6 -1 10
5 10 6 0 8 5 4 12 -5 7 -3 8 5 4 8 -5 14 0 18 13 3 12 11 21 19 21 7 0 11 6 8
14 -3 8 3 16 16 19 12 3 19 10 16 15 -6 10 21 27 37 24 4 -1 6 1 6 6 -4 22 3
34 15 29 11 -4 13 0 11 15 -3 16 -2 19 7 10 12 -12 38 7 38 27 0 10 14 15 33
12 5 -1 6 2 3 7 -3 5 8 16 25 26 16 9 27 21 24 27 -3 5 1 6 9 3 9 -4 18 0 22
9 3 9 14 14 25 12 10 -2 18 1 16 8 -1 7 5 11 14 9 8 -1 29 11 45 27 24 24 32
27 49 18 19 -9 19 -9 5 8 -10 12 -10 16 -2 11 7 -4 20 -2 29 6 14 11 16 11 8
-1 -5 -10 -4 -12 3 -7 7 4 12 15 13 24 0 11 2 13 6 4 4 -10 8 -10 21 0 13 11
14 11 8 0 -7 -11 -4 -11 13 0 12 7 21 15 21 19 0 3 16 5 35 4 20 -1 38 2 42 8
4 6 1 7 -7 2 -8 -5 -11 -4 -7 2 4 6 22 9 41 8 19 -1 33 2 30 7 -8 13 11 9 25
-4 10 -11 12 -10 9 2 -2 10 6 15 27 16 17 1 32 3 35 4 3 1 10 1 15 0 30 -6 72
-4 67 4 -3 5 2 7 11 3 10 -3 17 -3 17 2 0 10 60 8 78 -3z m-1897 -69 c-10 -9
-11 -8 -5 6 3 10 9 15 12 12 3 -3 0 -11 -7 -18z m1280 -80 c-10 -9 -11 -8 -5
6 3 10 9 15 12 12 3 -3 0 -11 -7 -18z m-991 -2587 c0 -5 -2 -10 -4 -10 -3 0
-8 5 -11 10 -3 6 -1 10 4 10 6 0 11 -4 11 -10z m715 -500 c3 -6 -1 -7 -9 -4
-18 7 -21 14 -7 14 6 0 13 -4 16 -10z"/>
<path d="M3459 3103 c-13 -16 -12 -17 4 -4 16 13 21 21 13 21 -2 0 -10 -8 -17
-17z"/>
<path d="M5441 5077 c-6 -6 -24 -12 -39 -12 -17 0 -26 -5 -24 -13 1 -8 -2 -11
-8 -7 -6 4 -18 1 -27 -7 -13 -10 -15 -10 -9 0 4 7 -7 4 -25 -7 -18 -11 -36
-18 -41 -15 -5 3 -7 2 -6 -3 4 -10 -33 -47 -55 -56 -9 -3 -17 -13 -17 -22 0
-8 -7 -15 -16 -15 -8 0 -13 -4 -9 -9 3 -6 -4 -15 -15 -21 -11 -6 -18 -15 -15
-20 3 -4 -2 -15 -10 -23 -8 -9 -15 -22 -15 -29 0 -8 -6 -20 -12 -27 -11 -11
-10 -12 0 -6 11 6 11 3 1 -13 -7 -12 -18 -18 -24 -14 -5 3 -4 -2 4 -12 12 -14
12 -19 2 -26 -9 -5 -10 -9 -2 -14 6 -4 8 -13 4 -19 -14 -22 -14 -49 -1 -42 7
4 6 1 -3 -7 -11 -9 -14 -20 -9 -33 4 -11 5 -24 2 -29 -3 -5 0 -6 6 -2 7 4 10
-7 9 -34 -2 -23 2 -44 7 -47 5 -4 6 -1 1 7 -6 9 -4 11 4 6 7 -5 10 -14 7 -22
-3 -8 -1 -14 5 -14 6 0 7 -4 4 -10 -3 -5 -1 -10 4 -10 6 0 11 -9 11 -21 0 -11
5 -17 10 -14 6 4 10 -5 10 -19 0 -14 3 -25 8 -25 4 1 14 1 22 0 13 -1 13 -2 0
-11 -10 -6 -11 -10 -2 -10 6 0 12 -7 12 -16 0 -8 5 -12 10 -9 6 3 10 0 10 -8
0 -8 7 -18 16 -21 9 -4 14 -13 10 -22 -3 -8 -2 -13 3 -9 5 3 15 -8 23 -25 7
-16 19 -30 26 -30 7 0 10 -4 7 -10 -3 -5 -1 -10 4 -10 6 0 11 -9 11 -21 0 -11
5 -17 10 -14 6 3 10 1 10 -5 0 -6 5 -8 12 -4 6 4 8 3 4 -4 -3 -6 0 -17 8 -25
8 -8 12 -17 9 -21 -4 -3 2 -6 12 -6 14 0 15 -3 5 -15 -10 -12 -8 -14 7 -11 13
3 19 -2 20 -16 1 -11 14 -31 28 -44 14 -13 23 -24 20 -24 -4 0 1 -7 9 -16 9
-8 13 -20 10 -26 -4 -7 -2 -8 4 -4 7 4 12 2 12 -4 0 -6 4 -9 9 -5 6 3 8 -4 6
-15 -2 -13 1 -20 11 -20 13 0 19 -12 15 -33 -1 -5 3 -6 9 -2 5 3 10 -1 10 -10
0 -9 5 -13 10 -10 6 3 10 -1 10 -9 0 -9 5 -16 10 -16 6 0 10 -7 10 -15 0 -9 7
-18 16 -22 8 -3 13 -12 10 -19 -3 -7 4 -16 15 -19 11 -4 18 -9 15 -12 -3 -3 3
-13 12 -22 12 -11 13 -13 2 -7 -8 5 1 -6 20 -24 19 -17 34 -34 33 -36 -7 -11
-2 -24 7 -19 6 3 10 -1 10 -9 0 -9 5 -16 10 -16 6 0 10 -7 10 -15 0 -8 5 -15
10 -15 6 0 10 -7 10 -15 0 -8 5 -15 11 -15 6 0 8 -7 5 -16 -3 -8 -2 -12 3 -9
5 3 12 1 16 -5 3 -5 1 -10 -4 -10 -6 0 -11 -7 -11 -15 0 -8 -7 -15 -15 -15 -8
0 -14 -6 -13 -12 2 -7 -2 -12 -9 -11 -7 2 -10 -3 -7 -11 3 -8 -5 -21 -18 -30
-12 -9 -17 -16 -10 -16 7 0 -1 -13 -18 -30 -16 -16 -30 -34 -30 -40 0 -6 -5
-8 -12 -4 -6 4 -8 3 -4 -4 3 -6 -1 -18 -10 -26 -8 -9 -12 -16 -7 -16 4 0 0 -5
-10 -11 -9 -6 -15 -14 -12 -20 4 -5 -2 -9 -11 -9 -10 0 -14 -3 -11 -7 4 -3 -1
-12 -11 -20 -11 -10 -12 -12 -2 -8 8 4 4 -3 -10 -14 -14 -11 -20 -21 -15 -21
6 0 2 -5 -8 -11 -9 -6 -14 -15 -11 -21 5 -7 1 -9 -9 -5 -11 4 -14 2 -10 -9 3
-7 0 -14 -7 -14 -6 0 -9 -4 -6 -9 3 -5 -1 -12 -10 -15 -8 -3 -12 -11 -9 -16 4
-6 1 -9 -7 -8 -7 2 -12 -3 -10 -9 1 -7 -3 -13 -10 -13 -6 0 -9 -3 -5 -6 8 -8
-16 -33 -26 -27 -5 3 -7 -3 -5 -13 2 -10 -2 -19 -9 -19 -6 0 -15 -4 -20 -9 -5
-5 -3 -6 5 -2 6 4 12 2 12 -3 0 -6 -5 -11 -10 -11 -6 0 -16 -11 -22 -25 -6
-13 -20 -27 -30 -31 -15 -4 -16 -9 -8 -19 8 -10 8 -15 -1 -21 -8 -5 -10 -3 -4
7 4 8 -1 5 -12 -6 -11 -11 -19 -23 -17 -27 3 -4 -7 -19 -21 -34 -13 -14 -22
-31 -18 -37 3 -5 2 -8 -3 -5 -5 3 -15 0 -22 -8 -7 -8 -10 -14 -7 -14 3 0 -3
-10 -14 -22 -11 -11 -18 -25 -15 -30 3 -4 -2 -8 -10 -8 -9 0 -16 -7 -16 -15 0
-8 -5 -15 -11 -15 -5 0 -7 -5 -3 -12 5 -8 2 -9 -10 -5 -14 6 -17 3 -12 -8 3
-10 -4 -26 -17 -40 -38 -42 -46 -53 -40 -59 4 -3 1 -6 -6 -6 -7 0 -9 -4 -6
-10 3 -5 1 -10 -5 -10 -7 0 -9 -9 -5 -22 5 -18 4 -20 -4 -8 -10 13 -15 8 -12
-12 0 -5 -4 -8 -11 -8 -6 0 -8 -3 -5 -7 4 -3 0 -15 -10 -25 -13 -14 -13 -18
-2 -18 11 0 11 -2 -1 -10 -13 -8 -13 -10 -1 -10 12 0 12 -2 -1 -12 -9 -8 -15
-26 -14 -43 1 -16 -2 -38 -6 -47 -5 -9 -4 -19 1 -22 4 -3 7 -22 6 -41 -1 -20
2 -38 7 -41 5 -3 6 -9 3 -14 -3 -5 -1 -11 5 -15 15 -9 12 -37 -2 -30 -7 3 -3
-2 10 -11 12 -9 22 -23 22 -30 0 -8 5 -14 10 -14 6 0 10 -5 10 -11 0 -5 -6 -7
-12 -3 -9 5 -9 3 1 -9 7 -9 18 -14 24 -10 5 3 7 1 4 -4 -4 -6 5 -22 19 -36 14
-14 23 -30 21 -34 -3 -5 3 -9 13 -10 23 -2 61 -34 53 -46 -3 -5 4 -6 17 -2 15
5 20 4 16 -4 -5 -7 2 -11 16 -11 13 0 30 -6 37 -13 6 -6 24 -12 39 -12 15 0
26 -5 25 -10 -2 -13 160 -13 169 0 5 6 8 4 8 -5 1 -12 3 -11 11 3 6 9 14 15
19 12 4 -3 21 0 37 7 15 6 31 11 36 10 4 -1 7 2 7 7 0 6 9 8 19 6 15 -3 18 1
14 12 -4 11 -2 14 5 9 7 -4 12 -2 12 4 0 7 7 10 15 6 8 -3 14 0 12 7 -1 7 4
11 11 9 6 -1 12 5 12 13 0 8 9 19 20 25 11 6 17 16 14 22 -5 7 -2 8 5 4 8 -5
14 0 18 13 3 11 10 18 16 14 7 -4 8 0 3 13 -4 10 -4 15 0 12 8 -8 34 14 27 25
-2 4 1 7 6 7 6 0 11 7 11 16 0 9 5 12 12 8 8 -5 9 -2 5 9 -4 11 -1 17 8 17 8
0 15 7 15 15 0 8 5 15 11 15 5 0 7 5 4 10 -3 6 -1 10 5 10 6 0 15 11 20 25 5
14 16 28 25 31 8 3 12 10 9 15 -3 5 0 9 5 9 6 0 10 4 9 9 -2 5 6 17 17 26 11
9 13 14 5 10 -8 -3 -5 2 8 11 12 9 22 23 22 32 0 8 3 12 6 9 4 -4 15 8 25 26
9 17 22 31 29 29 6 -1 8 3 4 9 -4 7 1 18 11 26 11 7 15 13 9 13 -5 1 2 8 16
16 18 11 20 14 5 10 l-20 -6 20 16 c11 8 19 20 17 25 -1 5 5 9 14 9 8 0 12 5
9 10 -3 6 -1 10 5 10 6 0 8 5 5 10 -3 6 -1 10 5 10 6 0 8 5 4 12 -4 6 -3 8 3
5 13 -8 37 18 29 32 -3 5 1 12 10 15 8 3 12 11 9 16 -4 6 -1 9 7 8 7 -2 12 3
10 10 -1 6 5 12 13 12 8 0 14 3 14 8 -4 22 2 42 11 37 5 -3 16 8 25 25 8 16
20 30 25 30 6 0 9 6 8 13 -2 6 3 11 10 9 8 -1 11 2 8 7 -4 5 -1 13 6 18 7 4
13 15 13 23 0 8 5 15 12 15 6 0 15 3 19 7 4 5 1 8 -6 8 -8 0 -5 7 8 19 12 10
18 22 14 26 -4 5 1 5 11 2 10 -4 16 -3 13 2 -3 5 3 20 14 34 11 14 20 28 20
32 0 11 40 59 40 49 1 -5 7 6 15 24 8 17 19 32 25 32 5 0 10 7 10 16 0 8 4 13
9 10 5 -3 11 8 15 25 3 17 10 28 16 24 9 -6 14 7 11 28 -1 7 15 11 32 8 5 -1
5 4 1 10 -4 7 1 18 10 25 10 7 18 16 19 21 1 4 6 7 11 5 5 -2 6 4 3 13 -4 8
-2 15 3 15 6 0 18 13 29 30 10 16 20 27 24 24 3 -3 4 6 3 20 -3 23 -1 24 12
14 13 -10 14 -10 8 0 -4 6 -3 12 3 12 6 0 7 7 4 17 -4 10 -2 14 4 10 6 -4 17
1 24 10 12 14 12 16 -1 9 -9 -4 -8 -2 2 7 10 8 14 18 10 22 -4 5 0 6 9 2 13
-4 16 -1 11 15 -3 14 -1 19 6 14 16 -10 15 6 -4 53 -9 22 -21 39 -27 38 -7 -1
-11 4 -9 11 1 6 -2 12 -8 12 -5 0 -10 7 -10 16 0 8 -4 12 -10 9 -5 -3 -10 -1
-10 6 0 6 -8 18 -17 26 -10 8 -12 12 -5 8 6 -3 12 -1 12 4 0 6 -7 11 -15 11
-8 0 -15 7 -15 16 0 8 -4 12 -10 9 -5 -3 -10 1 -10 10 0 18 -25 47 -33 39 -3
-3 -4 3 -4 13 1 11 -4 17 -13 15 -8 -2 -12 -1 -8 3 4 4 2 12 -3 19 -41 49 -48
60 -42 69 3 6 1 7 -5 3 -7 -4 -12 -1 -12 7 0 8 -6 17 -14 20 -8 3 -22 22 -31
41 -10 20 -21 36 -26 36 -5 0 -9 9 -9 21 0 11 -4 17 -10 14 -5 -3 -10 -1 -10
5 0 6 -4 8 -10 5 -6 -4 -7 1 -3 11 5 13 3 15 -7 9 -10 -6 -12 -4 -7 8 4 10 -1
18 -14 22 -10 4 -19 13 -19 21 0 19 -25 45 -34 36 -4 -3 -4 1 -1 10 4 10 -2
22 -17 32 -12 9 -19 16 -15 16 4 0 2 6 -5 14 -7 8 -17 11 -23 8 -5 -3 -4 1 3
10 10 13 9 16 -9 21 -14 4 -20 11 -16 21 4 9 2 16 -4 16 -6 0 -17 6 -25 14
-11 11 -11 16 -1 19 7 3 5 6 -5 6 -9 1 -20 10 -23 21 -4 11 -11 18 -16 15 -5
-3 -6 1 -3 9 5 14 -4 20 -27 18 -3 -1 -5 9 -5 21 1 15 -4 21 -14 19 -8 -2 -12
0 -8 3 11 11 -11 47 -24 39 -6 -4 -8 -3 -4 4 3 6 2 13 -4 17 -6 4 -7 11 -4 17
5 8 1 9 -10 5 -14 -5 -17 -3 -12 8 3 8 1 15 -4 15 -6 0 -10 7 -10 15 0 8 -7
15 -17 15 -9 0 -13 3 -10 7 4 3 -1 12 -11 20 -9 8 -11 11 -3 7 9 -5 7 2 -5 18
-13 18 -22 22 -27 14 -5 -6 -7 -2 -4 12 4 15 0 22 -10 22 -8 0 -11 5 -8 10 3
6 -2 10 -12 11 -10 0 -13 3 -6 6 10 3 10 7 0 18 -7 7 -16 10 -21 7 -5 -3 -7 2
-3 11 4 12 1 17 -10 17 -9 0 -14 3 -10 6 3 3 1 11 -4 18 -41 48 -48 60 -43 67
3 5 -2 9 -11 9 -11 0 -15 5 -11 15 3 8 0 14 -7 12 -7 -1 -11 4 -9 11 1 8 -2
11 -7 8 -5 -3 -14 1 -21 9 -11 13 -10 15 6 9 18 -5 18 -5 0 6 -22 15 -56 48
-56 56 0 3 5 2 12 -2 7 -4 8 -3 4 5 -6 9 -12 9 -24 -1 -10 -7 -14 -9 -10 -4 9
10 -41 58 -53 50 -5 -3 -9 2 -9 11 0 9 -4 14 -9 10 -5 -3 -17 2 -25 11 -9 9
-23 13 -31 10 -8 -3 -15 -1 -15 5 0 6 -4 7 -10 4 -5 -3 -10 -1 -10 5 0 6 -4 9
-9 5 -5 -3 -13 0 -17 6 -4 8 -9 7 -16 -2 -7 -10 -11 -11 -14 -3 -3 7 -14 10
-24 7 -13 -3 -20 0 -20 8 0 11 -2 11 -10 -1 -8 -12 -11 -13 -19 -1 -7 11 -9
11 -13 0 -4 -11 -8 -12 -20 -2 -11 10 -17 10 -27 0z"/>
<path d="M4485 3900 c-3 -5 -1 -10 4 -10 6 0 11 5 11 10 0 6 -2 10 -4 10 -3 0
-8 -4 -11 -10z"/>
</g>
</svg>
